<?xml version="1.0" encoding="utf-8"?>
<!-- Generator: Adobe Illustrator 23.0.3, SVG Export Plug-In . SVG Version: 6.00 Build 0)  -->
<svg version="1.1" id="Layer_1" xmlns="http://www.w3.org/2000/svg" xmlns:xlink="http://www.w3.org/1999/xlink" x="0px" y="0px"
	 viewBox="0 0 397.2 103.9" style="enable-background:new 0 0 397.2 103.9;" xml:space="preserve">
<style type="text/css">
	.st0{fill:#FFFFFF;}
	.st1{fill:#058ADC;}
	.st2{fill:#D7F0FF;}
	.st3{fill-rule:evenodd;clip-rule:evenodd;fill:#058ADC;}
	.st4{fill-rule:evenodd;clip-rule:evenodd;fill:#FFFFFF;}
	.st5{fill-rule:evenodd;clip-rule:evenodd;fill:#FF921E;}
	.st6{fill:#FF921E;}
</style>
<title>logo</title>
<g id="Layer_1-2">
	<g>
		<path class="st0" d="M125.5,51.9h-4.6V20.4h4.6V32h14V20.4h4.6v31.5h-4.6V36.6h-14V51.9z"/>
		<path class="st0" d="M149.9,22.7c0-0.8,0.3-1.5,0.8-2c0.5-0.6,1.2-0.9,1.9-0.9c0.7,0,1.4,0.3,1.9,0.8c0.2,0.3,0.4,0.6,0.6,0.9
			c0.1,0.4,0.2,0.7,0.2,1.1c0,0.8-0.2,1.5-0.8,2.1c-0.5,0.5-1.1,0.9-1.9,0.8c-0.7,0-1.4-0.3-1.9-0.9
			C150.2,24.2,149.9,23.5,149.9,22.7z M154.7,51.9h-4.2V31.5h4.2V51.9z"/>
		<path class="st0" d="M164.9,51.9h-4.2V18.6h4.2V40l7.7-8.5h5.2l-8.3,9l9.1,11.4h-5.4l-8.3-10.5V51.9z"/>
		<path class="st0" d="M198.8,41.5v0.9h-14.7c0,0.9,0.2,1.7,0.5,2.6c0.2,0.7,0.6,1.4,1.1,1.9c0.4,0.5,1,0.9,1.6,1.2
			c0.7,0.3,1.4,0.4,2.1,0.4c1.2,0,2.4-0.3,3.4-1c1-0.8,1.8-1.9,2.3-3l3.5,2.2c-0.9,1.8-2.2,3.4-3.8,4.6c-1.6,1-3.5,1.5-5.4,1.5
			c-2.7,0.1-5.3-1-7-3c-1.8-2.2-2.8-5.1-2.6-8c-0.1-2.9,0.8-5.7,2.7-7.9c3.6-3.9,9.7-4.1,13.6-0.5c0.1,0.1,0.2,0.2,0.3,0.3
			C198.1,35.9,199,38.7,198.8,41.5z M184.4,39.3h10.1c-0.1-1.3-0.6-2.4-1.5-3.3c-1-0.8-2.2-1.2-3.5-1.1c-1.2-0.1-2.4,0.3-3.3,1.1
			C185.3,36.9,184.7,38,184.4,39.3L184.4,39.3z"/>
		<path class="st0" d="M207.4,31.5v3.3c0.3-1.1,0.9-2.2,1.8-3c0.8-0.7,1.8-1,2.8-1c1.2,0,2.4,0.3,3.4,0.9l-1.5,4
			c-0.4-0.3-0.7-0.5-1.2-0.6c-0.5-0.1-0.9-0.2-1.4-0.2c-1.3-0.1-2.5,0.7-3,1.9c-0.7,2-1,4.1-0.9,6.2v8.9h-4.2V31.5H207.4z"/>
		<path class="st0" d="M234.8,51.9h-4.6V20.4h4.6V32h13.9V20.4h4.6v31.5h-4.6V36.6h-13.9V51.9z"/>
		<path class="st0" d="M259.1,22.7c0-0.8,0.3-1.5,0.8-2c0.5-0.6,1.2-0.9,1.9-0.9c0.4,0,0.7,0.1,1,0.2c0.3,0.1,0.6,0.3,0.8,0.6
			c0.2,0.3,0.4,0.6,0.5,0.9c0.1,0.4,0.2,0.7,0.2,1.1c0,0.8-0.2,1.5-0.8,2.1c-0.5,0.5-1.1,0.9-1.9,0.8c-0.7,0-1.4-0.3-1.9-0.9
			C259.4,24.2,259.1,23.5,259.1,22.7z M263.9,51.9h-4.2V31.5h4.2V51.9z"/>
		<path class="st0" d="M274.1,42.6v9.3h-4.2V31.5h4v3.3c0.7-1.3,1.7-2.3,2.9-3.1c1.1-0.7,2.4-1,3.8-1c1.3,0,2.5,0.3,3.6,1
			c1,0.8,1.8,1.8,2.1,3.1c0.8-1.2,1.9-2.3,3.1-3.1c1.1-0.7,2.4-1,3.7-1c1.1,0,2.2,0.2,3.2,0.7c0.9,0.5,1.6,1.3,2.1,2.2
			c0.3,0.5,0.4,1,0.5,1.6c0.1,0.9,0.2,1.8,0.2,2.6v14h-4.2V41.5c0-2.7-0.3-4.5-0.8-5.4c-0.6-0.9-1.7-1.4-2.8-1.3
			c-1.4-0.1-2.8,0.6-3.5,1.8c-0.7,1.2-1,3.2-1,6.1v9.3h-4.2V41.5c0.1-1.8-0.1-3.6-0.8-5.3c-0.6-1-1.7-1.6-2.8-1.5
			c-0.8,0-1.5,0.2-2.2,0.6c-0.7,0.4-1.3,1-1.6,1.7c-0.3,0.5-0.5,1.1-0.5,1.7c0,0.3-0.1,0.8-0.1,1.5
			C274.1,40.9,274.1,41.7,274.1,42.6z"/>
		<path class="st0" d="M321.9,31.5v20.4h-4.2v-2.7c-0.6,1.1-1.6,2-2.6,2.7c-1.1,0.6-2.2,0.9-3.4,0.9c-2.4,0.1-4.7-1-6.1-2.9
			c-1.6-2.4-2.4-5.2-2.2-8.1c-0.1-2.8,0.7-5.6,2.3-7.9c1.4-1.9,3.6-3,6-3c1.4,0,2.7,0.3,3.9,1c1.1,0.7,1.9,1.8,2.3,3v-3.3
			L321.9,31.5z M317.8,41.7c0.1-1.7-0.4-3.5-1.3-4.9c-0.9-1.2-2.3-1.8-3.7-1.8c-0.7,0-1.5,0.1-2.1,0.5c-0.6,0.3-1.2,0.8-1.6,1.4
			c-0.5,0.7-0.8,1.4-1,2.2c-0.2,0.9-0.4,1.9-0.3,2.9c-0.1,1.8,0.3,3.5,1.3,5c1.6,2,4.6,2.3,6.6,0.7c0.3-0.3,0.6-0.5,0.8-0.9
			C317.4,45.2,317.9,43.4,317.8,41.7z"/>
		<path class="st0" d="M332.1,51.9h-4.2V18.6h4.2V51.9z"/>
		<path class="st0" d="M355.4,31.5v20.4h-4.2v-2.7c-0.6,1.1-1.5,2-2.6,2.7c-1.1,0.6-2.2,0.9-3.4,0.9c-2.4,0.1-4.7-1-6.1-2.9
			c-1.6-2.4-2.4-5.2-2.2-8.1c-0.1-2.8,0.7-5.6,2.3-7.9c1.4-1.9,3.6-3,6-3c1.4,0,2.7,0.3,3.8,1c1.1,0.7,1.9,1.8,2.3,3v-3.3
			L355.4,31.5z M351.3,41.7c0.1-1.7-0.4-3.5-1.3-4.9c-0.9-1.2-2.3-1.8-3.7-1.8c-0.7,0-1.5,0.1-2.1,0.5c-0.6,0.3-1.2,0.8-1.6,1.4
			c-0.5,0.7-0.8,1.4-1,2.2c-0.2,0.9-0.4,1.9-0.4,2.9c-0.1,1.8,0.3,3.5,1.3,5c1.6,2,4.6,2.3,6.6,0.7c0.3-0.3,0.6-0.6,0.8-0.9
			C350.9,45.2,351.4,43.4,351.3,41.7z"/>
		<path class="st0" d="M377.6,31.5l-13.3,29.9H360l5-11.3l-6.7-18.6h4.6l3.3,10.6c0.4,1.3,0.7,2.6,0.9,4c0.1-0.5,0.3-0.9,0.4-1.4
			c0.2-0.6,0.5-1.2,0.8-2.1l0.1-0.3l4.5-10.9L377.6,31.5z"/>
		<path class="st0" d="M397.2,31.5v20.4H393v-2.7c-0.6,1.1-1.6,2-2.7,2.7c-1.1,0.6-2.2,0.9-3.4,0.9c-2.4,0.1-4.7-1-6.1-2.9
			c-1.6-2.4-2.4-5.2-2.2-8.1c-0.1-2.8,0.7-5.6,2.3-7.9c1.4-1.9,3.6-3.1,6-3c1.4,0,2.7,0.3,3.8,1c1.1,0.7,1.9,1.8,2.3,3v-3.3
			L397.2,31.5z M393.1,41.7c0.1-1.7-0.4-3.5-1.3-4.9c-0.9-1.2-2.2-1.8-3.7-1.8c-0.7,0-1.5,0.1-2.1,0.5c-0.6,0.3-1.2,0.8-1.6,1.4
			c-0.5,0.7-0.8,1.4-1,2.2c-0.2,0.9-0.4,1.9-0.4,2.9c-0.1,1.8,0.3,3.5,1.3,5c1.6,2,4.6,2.3,6.6,0.7c0.3-0.3,0.6-0.6,0.8-0.9
			C392.7,45.2,393.2,43.4,393.1,41.7z"/>
		<path class="st0" d="M121.4,83.7V67.2h-3.5v-2.4h9.5v2.4H124v16.5H121.4z"/>
		<path class="st0" d="M130,83.7V71h2.2v1.8c0.5-1.3,1.7-2.1,3.1-2.1v2.5h-0.4c-1.7,0-2.6,0.9-2.6,2.8v7.6H130z"/>
		<path class="st0" d="M147.3,79.4v0.2c0.1,1.1-0.3,2.2-0.9,3c-0.7,0.9-1.7,1.3-2.8,1.2c-1.5,0.1-2.9-0.8-3.4-2.2
			c-0.5-1.4-0.7-2.9-0.7-4.4c0-4.3,1.3-6.5,4-6.5c1.4-0.1,2.8,0.7,3.3,2c0.5,1.4,0.7,2.8,0.6,4.2v0.7h-5.8v0.4
			c0,2.5,0.6,3.8,1.9,3.8c1,0,1.6-0.8,1.6-2.5L147.3,79.4z M145.1,76v-0.3c0-2-0.6-3-1.8-3s-1.8,1.1-1.8,3.3L145.1,76z"/>
		<path class="st0" d="M152.6,83.7v-20h2.3v12.9l3.3-5.6h2.5l-3.5,5.8l3.6,6.8h-2.5l-3.5-6.7v6.7H152.6z"/>
		<path class="st0" d="M164.9,81c0.5,0.5,1.2,0.8,2,0.9c0.4,0,0.9-0.1,1.2-0.4c0.3-0.3,0.5-0.7,0.5-1.1c0-0.5-0.4-1.2-1.3-2
			l-0.3-0.2c-0.5-0.5-1-1-1.5-1.6c-1-1.4-0.8-3.4,0.3-4.6c0.7-0.7,1.6-1.1,2.6-1c0.7,0,1.4,0.2,2,0.5v2.4c-0.5-0.5-1.1-0.8-1.9-0.8
			c-0.4,0-0.8,0.1-1.1,0.4c-0.3,0.3-0.5,0.7-0.4,1.1c0.1,0.8,0.6,1.5,1.2,2l0.2,0.1l0.2,0.2c1.2,0.9,2,2.2,2.1,3.7
			c0.1,1-0.3,1.9-1,2.6c-0.7,0.7-1.7,1-2.6,0.9c-0.8,0-1.5-0.2-2.2-0.5L164.9,81z"/>
		<path class="st0" d="M192.2,83.7l-1-1.6c-0.9,1.1-2.2,1.7-3.7,1.8c-1.3,0-2.5-0.6-3.2-1.6c-0.7-1-1.1-2.3-1.1-3.5
			c0-1.8,0.9-3.5,2.7-5.4c-1-1.5-1.5-3.2-1.6-4.9c0-1.1,0.3-2.1,1-2.9c0.7-0.7,1.8-1.2,2.8-1.1c1,0,2,0.4,2.8,1.1
			c0.7,0.7,1.1,1.7,1.1,2.7c0,1.6-1.1,3.4-3.3,5.4l2.8,4.5l1.8-2.4l1.8,1.2l-2.3,3.1l2.2,3.4H192.2z M187.2,75.4
			c-0.9,0.9-1.5,2.1-1.6,3.3c0,0.7,0.2,1.4,0.6,1.9c0.4,0.6,1,0.9,1.7,0.9c0.9-0.1,1.7-0.6,2.2-1.4L187.2,75.4z M187.8,71.8
			c1.4-1.3,2.1-2.5,2.1-3.6s-0.5-1.6-1.6-1.6c-1.1,0-1.6,0.6-1.6,1.9C186.8,69.6,187.2,70.8,187.8,71.8L187.8,71.8z"/>
		<path class="st0" d="M208.3,83.7V64.8h7.5v2.3h-5v5.5h4.6v2.2h-4.6v6.4h5v2.4L208.3,83.7z"/>
		<path class="st0" d="M222.9,77l-2.5-6h2.4l1.3,3.6l1.3-3.6h2.4l-2.5,6l2.9,6.7h-2.5l-1.7-4.4l-1.7,4.4h-2.5L222.9,77z"/>
		<path class="st0" d="M232.6,88.8V71h2.3v1.2c0.5-0.9,1.5-1.5,2.5-1.4c2.2,0,3.3,2.2,3.3,6.5c0,4.4-1.1,6.6-3.3,6.6
			c-1,0-2-0.6-2.5-1.5v6.4H232.6z M234.8,77.3c0,0.6,0,1.1,0,1.6c0,0.4,0.1,0.7,0.1,1.1c0.3,1.1,0.8,1.7,1.6,1.7
			c0.8,0,1.3-0.6,1.6-1.7c0.1-0.4,0.1-0.7,0.1-1.1c0-0.4,0-1,0-1.6c0-0.6,0-1.1,0-1.6c0-0.4-0.1-0.7-0.1-1.1
			c-0.2-1.1-0.8-1.7-1.6-1.7s-1.3,0.6-1.6,1.7C234.8,75.5,234.8,76.4,234.8,77.3L234.8,77.3z"/>
		<path class="st0" d="M253.2,79.4v0.2c0.1,1.1-0.3,2.2-0.9,3c-0.7,0.8-1.7,1.3-2.8,1.2c-1.5,0.1-2.9-0.8-3.4-2.2
			c-0.5-1.4-0.7-2.9-0.7-4.4c0-4.3,1.3-6.5,4-6.5c1.4-0.1,2.8,0.7,3.4,2c0.5,1.4,0.7,2.8,0.6,4.2v0.7h-5.8v0.4
			c0,2.5,0.6,3.8,1.9,3.8c1,0,1.6-0.8,1.6-2.5L253.2,79.4z M251.1,76v-0.3c0-2-0.6-3-1.7-3s-1.8,1.1-1.8,3.3L251.1,76z"/>
		<path class="st0" d="M263.7,83.7v-1.2c-0.5,0.9-1.5,1.5-2.5,1.5c-2.2,0-3.2-2.2-3.2-6.5c0-4.4,1.1-6.6,3.2-6.6c1,0,2,0.5,2.5,1.5
			v-8.6h2.3v20L263.7,83.7z M260.3,77.4c0,0.6,0,1.1,0,1.6c0,0.4,0.1,0.7,0.1,1.1c0.3,1.1,0.8,1.7,1.6,1.7c0.8,0,1.3-0.6,1.6-1.7
			c0.1-0.4,0.1-0.7,0.1-1.1c0-0.4,0-1,0-1.6c0-0.6,0-1.1,0-1.6c0-0.4-0.1-0.7-0.1-1.1c-0.2-1.1-0.8-1.7-1.6-1.7
			c-0.8,0-1.3,0.6-1.6,1.7c-0.1,0.4-0.1,0.7-0.1,1.1C260.3,76.2,260.3,76.7,260.3,77.4z"/>
		<path class="st0" d="M271.4,67.2c0-0.2,0-0.4,0.1-0.6c0.1-0.2,0.2-0.3,0.3-0.5c0.1-0.1,0.3-0.3,0.5-0.3c0.4-0.2,0.8-0.2,1.1,0
			c0.2,0.1,0.3,0.2,0.5,0.3c0.1,0.1,0.2,0.3,0.3,0.5c0.1,0.2,0.1,0.4,0.1,0.6c0,0.2,0,0.4-0.1,0.6c-0.1,0.2-0.2,0.3-0.3,0.5
			c-0.1,0.1-0.3,0.3-0.5,0.3c-0.4,0.1-0.8,0.1-1.1,0c-0.2-0.1-0.3-0.2-0.5-0.3c-0.1-0.1-0.2-0.3-0.3-0.5
			C271.5,67.6,271.4,67.4,271.4,67.2z M271.7,83.7V71h2.3v12.7L271.7,83.7z"/>
		<path class="st0" d="M280.1,83.7V72.7h-1.3V71h1.3v-3.4h2.3V71h1.7v1.7h-1.7v10.9L280.1,83.7z"/>
		<path class="st0" d="M288.3,67.2c0-0.2,0-0.4,0.1-0.6c0.1-0.2,0.2-0.3,0.3-0.5c0.1-0.1,0.3-0.3,0.5-0.3c0.4-0.2,0.8-0.2,1.1,0
			c0.2,0.1,0.3,0.2,0.5,0.3c0.3,0.3,0.4,0.7,0.4,1.1c0,0.2,0,0.4-0.1,0.6c-0.1,0.2-0.2,0.3-0.3,0.5c-0.1,0.1-0.3,0.3-0.5,0.3
			c-0.4,0.1-0.8,0.1-1.1,0c-0.2-0.1-0.3-0.2-0.5-0.3c-0.1-0.1-0.2-0.3-0.3-0.5C288.3,67.6,288.3,67.4,288.3,67.2z M288.6,83.7V71
			h2.3v12.7L288.6,83.7z"/>
		<path class="st0" d="M296.2,77.3c0-4.4,1.4-6.5,4.3-6.5s4.3,2.2,4.3,6.5c0,4.4-1.4,6.6-4.3,6.6C297.6,83.9,296.2,81.7,296.2,77.3z
			 M298.5,77.3c0,3,0.6,4.4,1.9,4.4c1.3,0,1.9-1.5,1.9-4.4c0-3-0.6-4.4-1.9-4.4S298.5,74.3,298.5,77.3L298.5,77.3z"/>
		<path class="st0" d="M309.9,83.7V71h2.3v1.3c0.6-0.9,1.6-1.4,2.7-1.4c1.8,0,2.8,1,2.8,3.1v9.7h-2.3v-8.5c0-0.5,0-1.1-0.2-1.6
			c-0.2-0.4-0.7-0.7-1.2-0.7c-1,0-1.6,0.6-1.6,1.9v8.8L309.9,83.7z"/>
		<path class="st0" d="M331.2,70.4h1.7c0.9-0.1,1.9,0.2,2.6,0.9c0.5,0.8,0.8,1.7,0.7,2.7c0.1,0.9-0.2,1.8-0.7,2.5
			c-0.6,0.6-1.5,0.9-2.4,0.8h-0.6v6.4h-1.2L331.2,70.4z M332.4,71.5v4.7h0.7c0.6,0.1,1.2-0.2,1.6-0.7c0.3-0.5,0.4-1.1,0.4-1.7
			c0-1.6-0.7-2.3-2-2.3L332.4,71.5z"/>
		<path class="st0" d="M338.9,74.8h1.1l1.1,5.7c0.1,0.8,0.3,1.5,0.4,2.2c0.1-0.3,0.1-0.7,0.2-1l0.2-1l0.1-0.3l1.2-5.7h1.1l-2.1,8.9
			h-1.2L338.9,74.8z"/>
		<path class="st0" d="M347.5,75.7h-0.9v-0.9h0.9v-2.5h1.1v2.5h1.5v0.9h-1.5v8h-1.1V75.7z"/>
		<path class="st0" d="M353.9,82.2c0.2,0,0.4,0.1,0.6,0.2c0.2,0.2,0.3,0.4,0.2,0.6c0,0.1,0,0.2-0.1,0.3c0,0.1-0.1,0.2-0.2,0.3
			c-0.1,0.1-0.2,0.1-0.3,0.2c-0.2,0.1-0.4,0.1-0.6,0c-0.1,0-0.2-0.1-0.3-0.2c-0.1-0.1-0.1-0.2-0.2-0.3c0-0.1-0.1-0.2-0.1-0.3
			c0-0.2,0.1-0.4,0.2-0.6C353.5,82.3,353.7,82.2,353.9,82.2z"/>
		<path class="st0" d="M364.7,70.4h1.2v12.2h2.8v1.1h-4L364.7,70.4z"/>
		<path class="st0" d="M372,75.7h-0.9v-0.9h0.9v-2.5h1.1v2.5h1.5v0.9h-1.5v8H372V75.7z"/>
		<path class="st0" d="M381,83.7v-0.8c-0.2,0.6-0.9,1-1.5,1c-1,0-1.6-0.6-1.9-1.8c-0.2-1-0.3-2-0.3-3c0-2.9,0.7-4.3,2.2-4.3
			c0.7,0,1.3,0.3,1.5,0.9v-6h1.1v14.1H381z M378.4,79.2c0,0.7,0,1.5,0.1,2.2c0.2,1,0.6,1.5,1.2,1.5s1-0.5,1.2-1.5
			c0-0.3,0.1-0.6,0.1-0.9c0-0.4,0-0.8,0-1.3c0-0.7,0-1.5-0.1-2.2c-0.2-1-0.6-1.5-1.2-1.5c-0.6,0-1,0.5-1.2,1.5
			c0,0.2-0.1,0.5-0.1,0.8S378.4,78.7,378.4,79.2L378.4,79.2z"/>
		<path class="st0" d="M387,82.2c0.2,0,0.4,0.1,0.6,0.2c0.2,0.2,0.3,0.4,0.2,0.6c0,0.1,0,0.2-0.1,0.3c-0.1,0.2-0.2,0.3-0.4,0.4
			c-0.1,0-0.2,0.1-0.3,0.1c-0.1,0-0.2,0-0.3-0.1c-0.1,0-0.2-0.1-0.3-0.2c-0.1-0.1-0.1-0.2-0.2-0.3c0-0.1-0.1-0.2-0.1-0.3
			c0-0.2,0.1-0.4,0.2-0.6C386.6,82.3,386.8,82.2,387,82.2z"/>
	</g>
	<g>
		<path class="st1" d="M100,71.6C89.2,98.1,58.9,110.9,32.3,100c-9.1-3.7-17-10-22.8-18.1c30.5,3.4,39.2-1.8,54.3-8.1
			c3.8-1.6,6.6-2.9,10-3.4H74l1.6-0.2c6.7-0.7,13.4-0.5,20,0.5C96.3,70.9,99.4,71.5,100,71.6z"/>
		<path class="st2" d="M103.8,51.9c0,5.4-0.8,10.7-2.4,15.9c-0.1,0.4-0.3,0.8-0.4,1.2l0,0c-0.2,0.5-0.4,1.1-0.6,1.6
			c0,0.1-0.1,0.4-0.2,0.6c-0.1,0.2-0.1,0.2-0.1,0.3c-0.6-0.1-3.7-0.7-4.4-0.8c-6.6-1-13.4-1.2-20-0.6L74,70.4h-0.1
			c-3.4,0.5-6.2,1.8-10,3.4C48.8,80.2,40.1,85.4,9.6,82c-3.3-4.6-5.8-9.8-7.4-15.3c-0.3-1.1-0.6-2.2-0.9-3.3
			c-6.3-28,11.2-55.8,39.1-62.1s55.8,11.2,62.1,39.1C103.4,44.2,103.8,48.1,103.8,51.9L103.8,51.9z"/>
		<path class="st3" d="M101.3,67.8c-0.1,0.4-0.3,0.8-0.4,1.2l0,0l0,0l0,0c-1.6-1.3-3.8-3.3-6.3-5.4l-0.9-0.8c-1.9-1.6-3.9-3.4-6-5.2
			l-1.5-1.3c-0.8-0.7-1.7-1.5-2.5-2.2c-0.4-0.3-0.8-0.7-1.2-1l-7.8-6.8c-0.4-0.4-0.9-0.7-1.2-1.1c-0.4-0.3-0.9-0.8-1.3-1.1l-0.5-0.4
			c-0.2-0.2-0.4-0.4-0.6-0.5L70.8,43c-0.3-0.2-0.5-0.4-0.5-0.5l0,0c0.5,0.9,1,1.8,1.6,2.7c0.1,0.2,0.2,0.3,0.3,0.5
			c0.8,1.1,1.6,2.1,2.6,3c0.1,0.1,0.2,0.2,0.3,0.2c0.4,0.4,0.8,0.7,1.3,1c3.2,2.6,6.2,5.3,9,8.3l-7.1-2.4c0,0,3.3,3.7,6.1,6.7
			c0.2,0.2,0.5,0.5,0.7,0.7c0.1,0.1,0.2,0.2,0.3,0.2c0.6,0.5,1.3,1,2,1.6c0.6,0.4,1.2,0.9,1.8,1.3c1.2,0.8,2.4,1.7,3.7,2.6l0,0
			l0.3,0.2c0.7,0.5-18.4-0.9-19-1.9c-3.1-4.9-7.1-10.1-8.4-12c-0.6-0.8-1.4-2.1-2.2-3.5c-0.3-0.5-0.6-0.9-0.9-1.4l-0.6-0.9
			c-0.2-0.3-0.4-0.6-0.6-0.9l-0.8-1.3c-0.1-0.1-0.2-0.3-0.2-0.4c-0.2-0.3-0.3-0.5-0.5-0.8c-0.4-0.7-0.8-1.4-1.3-2c0,0,0,0,0,0.1
			c0.4,1-0.4,8.4-0.4,8.4S54.1,42.2,54,39.3c-0.2-3-7-11-7-11c-0.2,0.9-0.3,6.3-0.3,6.3s2.4,4.1,2.6,5.1c0.2,1-0.6,3,1.2,5.5
			s2.8,6.9,2.8,6.9s-5.1-2.5-7.6-4.9c-2.5-2.3-6.7-3.5-6.9-3.5c0.2,0.3,8.1,10.6,10.6,12c1.6,0.8,7.2,9,11.2,14.5
			c0.4,0.6,0.9,1.1,1.3,1.6c-2.1,0-4.2-0.1-6.3-0.3c-6.7-0.9-2.4-4-9.5-11.1c-1.4-1.4-1.6,2.6-2.7,2.4c-1.2-0.2-3-6.5-4.3-9.6
			c-1.4-3.1-13.8-12.6-13.8-12.6c-0.7,0.5-1.2,1.1-1.6,1.9c-0.5,1.2-1.9,11.9-1.9,11.9s3.7-3.3,4.9-5.5c1.1-2.2,4.1,3,4.3,4.1
			c0.2,1.2-2.4,0.8-3.3,1.8c-1,1-1.9,5.3-2.2,8.5c0,0.1,0,0.2,0,0.2c0,0.1,0,0.2,0,0.3c-0.1,0.4-0.2,0.7-0.3,1
			c-0.1,0.2-0.2,0.4-0.3,0.6c-0.1,0.2-0.1,0.2-0.1,0.3c-1,1.9-2.2,3.7-3.5,5.4l-0.6,0.7c-0.2,0.3-0.5,0.6-0.7,0.9
			c-0.6,0.7-1.2,1.4-1.8,2.1c-0.2,0.2-0.4,0.4-0.6,0.6c-0.7,0.7-1.4,1.4-2.2,2l-9.7-2.2c-1.3-2.7-2.5-5.5-3.3-8.4
			c-0.3-1.1-0.6-2.2-0.9-3.3C8.6,54.8,15.9,45,22.7,39.9c2.6-2,7.9,0.6,9.1,0.8s4.3,1.6,4.7,0.4c0.4-1.2,8.7-13.2,10.4-14.2
			c1.8-1,19.3,16.8,19.3,16.8s0.2-3.9,4.1-2.2C73.3,42.8,92.4,59.8,101.3,67.8z"/>
		<path class="st4" d="M55.4,71.4c-7,1.9-14.5,3.7-23.5,4.2h-0.2c-4.8,0.2-9.5,0.1-14.3-0.4h-0.1c0.2-0.2,0.4-0.4,0.6-0.6
			c3.4-3.6,7.2-9.1,7.5-11.5c0.3-3.2,1.2-7.5,2.2-8.5c1-1,3.5-0.6,3.3-1.8c-0.2-1.2-3.2-6.3-4.3-4.1s-4.9,5.5-4.9,5.5
			s1.4-10.7,1.9-12c0.3-0.8,0.9-1.4,1.6-1.9c0,0,12.4,9.5,13.8,12.6c1.4,3.1,3.2,9.4,4.3,9.6c1.2,0.2,1.4-3.7,2.7-2.4
			C53.1,67.4,48.8,70.5,55.4,71.4z"/>
		<path class="st4" d="M76,70.2l-0.5,0L74,70.4h-0.1c-3.9,0.6-7.7,1.4-11.5,2.4c-9.2,1-19.1,2.1-30.5,2.8c8.9-0.5,16.3-2.3,23.1-4.1
			l0.4-0.1c2.1,0.2,4.2,0.3,6.3,0.3c-0.4-0.5-0.8-1.1-1.3-1.6c-4.1-5.5-9.7-13.6-11.2-14.5c-2.5-1.4-10.4-11.8-10.6-12.1
			c0.2,0.1,4.4,1.2,6.9,3.5c2.5,2.3,7.7,4.9,7.7,4.9s-1-4.3-2.8-6.8c-1.8-2.6-1-4.5-1.2-5.5c-0.2-1-2.6-5.1-2.6-5.1s0.1-5.4,0.3-6.3
			c0,0,6.8,8.1,7,11s4.5,13.4,4.5,13.4s0.8-7.5,0.4-8.4c0,0,0-0.1,0-0.1c0.5,0.6,0.9,1.3,1.3,2c0.2,0.2,0.3,0.5,0.5,0.8
			c0.1,0.1,0.2,0.3,0.2,0.4l0.8,1.3c0.2,0.3,0.4,0.6,0.6,0.9l0.6,1c0.3,0.5,0.6,1,0.9,1.4c0.8,1.4,1.6,2.6,2.2,3.5
			c1.3,1.8,5.3,7.1,8.4,12C75,68.3,75.5,69.3,76,70.2z"/>
		<path class="st4" d="M100.9,69L100.9,69L100.9,69c-0.2,0.5-0.4,1.1-0.6,1.6c-0.1,0.2-0.2,0.4-0.2,0.6c-0.6-0.1-1.2-0.1-1.9-0.2
			L97.6,71l-2-0.2l-2.2-1.5L93.1,69l0,0c-1.3-0.9-2.5-1.8-3.7-2.6c-0.7-0.5-1.3-0.9-1.8-1.3c-0.8-0.6-1.5-1.1-2-1.6
			c-0.1-0.1-0.2-0.2-0.3-0.2c-0.2-0.2-0.5-0.4-0.7-0.7c-2.8-3-6.1-6.7-6.1-6.7l7.1,2.4c-2.8-2.9-5.8-5.7-9-8.3
			c-0.4-0.3-0.9-0.7-1.3-1c-0.1-0.1-0.2-0.2-0.3-0.2c-1-0.9-1.8-1.9-2.6-3c-0.1-0.2-0.2-0.3-0.3-0.5c-0.6-0.9-1.1-1.7-1.6-2.7l0,0
			l0.5,0.5l0.2,0.2c0.2,0.1,0.4,0.3,0.6,0.5l0.5,0.4c0.4,0.3,0.8,0.7,1.3,1.1l1.2,1.1l7.8,6.8c0.4,0.3,0.8,0.7,1.2,1
			c0.8,0.7,1.7,1.5,2.5,2.2l1.5,1.3c2.1,1.8,4.1,3.6,6,5.2l0.9,0.8C97.2,65.8,99.4,67.7,100.9,69L100.9,69z"/>
		<path class="st5" d="M100.3,70.6c0,0.1-0.1,0.4-0.2,0.6c-0.1,0.2-0.1,0.2-0.1,0.3c-0.6-0.1-3.7-0.7-4.4-0.8
			c-6.6-1-13.3-1.2-20-0.5c-0.5,0-1.1,0.1-1.6,0.2h-0.1c-3.4,0.5-6.2,1.8-10,3.4C48.8,80.2,40.1,85.4,9.6,82
			c-3.3-4.6-5.8-9.8-7.4-15.3c4.5,1.9,9.8,4.5,17.6,5.9c9.3,1.6,27.9,0.7,35.3-1l0.4-0.1c1.7-0.5,3.4-0.9,5-1.3
			c4.5-1.3,9.2-2.2,13.9-2.7C79,67,86.7,67.9,93.1,69l0,0l0.8,0.1C96.3,69.6,98.5,70.2,100.3,70.6z"/>
		<path class="st6" d="M78.8,35.1c-0.1-0.7,0.7-2.4,1.9-2.3c1.3,0.1,2.3,1.4,2.2,2c-0.1,0.6-0.4,1.7-0.5,2.2c-0.1,0.4,3,0.6,3.7,1.7
			c0.7,1.1,0.1,3.7,0,4.4s0.4,2.4,0.3,3.1s-0.6,3.4-0.8,4.1s-1.1,0.6-1.1,0.6s-0.4,0.2-0.1,1.7c0.3,1.7,0.8,3.7,0.8,3.7
			c-0.1,0.2-0.4,0.3-0.6,0.3c0.2,0.9-0.1,0.6,0.3,1.9c0.4,1.2,1.4,2.8,1.6,3.5c0.2,0.7,0.2,6,0.2,6c0.2,0.3,0.3,0.6,0.4,0.9
			c0.1,0.8-4,0.9-3.9,0.6c0.1-0.3,2.3-0.8,2.3-1.4c-0.1-1-0.2-1.9-0.5-2.8c-0.3-1.1-1.2-3-1.2-3.7c0-0.6-0.1-1.2-0.4-1.8
			c-0.3-0.7-1-2.7-1.2-2.9c-0.3,0-0.5-0.1-0.7-0.2c0-0.2-0.1-0.5-0.1-0.7c-0.1-0.2-0.1-0.5-0.3-0.7c-0.2,0.2-0.3,0.5-0.4,0.8
			c0,0.2-0.1,0.4-0.2,0.6h-0.3c-0.3,0.9-0.6,1.7-0.8,2.6c-0.1,0.6,0.3,1.9,0.2,2.5c-0.1,0.6-1.2,5.1-1.3,5.9c0,0.2,0.2,0.4,0.2,0.4
			s0.2,1.2,0,1.3c-0.9,0.2-1.8,0.3-2.6,0.3c-0.9,0-1.4-0.2-1.5-0.4c-0.1-0.2,1.4-0.4,1.7-0.8c0.3-0.3,0.7-0.5,1-0.7l0.1-1.6v-6.8
			c0,0,0.1-2.8,0.1-3.1c-0.2,0-0.4-0.1-0.5-0.2c0.1-0.7,0.3-1.3,0.5-1.9c0.3-1.5,0.5-3,0.5-4.5c-0.1-0.7-0.1-1.5,0-2.2
			c0.1-0.1,0.5-1,0.5-1.3c-0.1-0.3-0.2,0.6-0.8,0.7C77,47.1,73.7,46,73.7,46c-0.4,0-0.8,0-1.2,0c-0.2-0.1-0.4-0.3-0.6-0.5
			c0,0-0.2-0.6,0-0.8c0.2-0.2,0.8,0,1.1,0.2c0.3,0.2,0.2,0.3,0.2,0.3l3.8,0.2c0,0-0.2-4,0.2-4.5c0.9-0.9,1.8-1.7,2.7-2.4l-0.4-0.8
			c-0.3-0.5-0.5-1.1-0.7-1.7C78.8,35.6,78.8,35.4,78.8,35.1z"/>
		<polygon class="st6" points="72.8,43.9 72.3,43.9 72.2,46.8 72.7,46.8 		"/>
		<path class="st6" d="M72.5,46.6c0,0.2-0.9,22.4-0.9,22.4h-0.3l0.8-22.4L72.5,46.6z"/>
		<path class="st6" d="M93.3,46.3c-0.1,0.7,0.2,2.1,0.4,2c0.6-0.1,0.4,0.6,0.4,0.6c-0.7-0.4-1.6-0.2-2,0.5c-0.5,0.9-0.9,1.9-1.1,2.9
			c-0.4,1.1-0.9,2.2-1.4,3.3c-0.1,0.2-0.9,1-0.7,1.3c0.2,0.3,0.5,0.9,0.8,0.3c0.1-0.5,0.3-0.9,0.6-1.3c0.5-0.7,1-1.3,1.4-2
			c0.4-0.7,0.8-1.3,1.3-2c0,0,0,1.5,0.1,2.4c0.1,0.8-0.1,3.6-0.1,3.7c0.2,0.6,0.2,1.1,0.2,1.7c-0.1,0.6-0.7,3.7-0.5,4.1
			c0.2,0.4,1.2,1.8,1,3.3c-0.1,0.6,0.3,1.3,0.1,1.7c-0.2,0.6-1,0.6-1.2,0.8c-0.2,0.1,2.9,1,2.8,0.4c-0.1-0.5,0.2-2.6,0-3.3
			c-0.2-0.7-0.2-2.4-0.4-2.9s0.9-3.7,0.9-3.9c0.3,0.6,0.5,1.2,0.7,1.8c0.2,0.9,0.4,1.8,0.6,2.7c0.3,0.5,0.5,1,0.6,1.5
			c0.1,0.8,0,2.9,0,3.1c0,0.1-1.3,1-0.9,1c0.5-0.1,2.2,0.8,2.2-0.4c0,0,0.7-3.4,0.4-4.8c-0.1-0.7-0.8-1.4-0.8-1.9S98.5,58,98.5,58
			c0.4-0.2,0.8-0.5,0.9-1c0.3-0.8,1.5-1.3,1.1-2.2s-1-0.8-1-1.7s0.3-1.6-0.2-2.4c-0.5-0.9,0.1-1.1-0.8-2s-1.8-0.8-2.2-0.6
			s-0.5-0.1-0.3-0.5c0.4-0.4,0.5-1,0.3-1.5c-0.2-0.8-1-1.4-1.9-1.2C93.7,45,93.4,45.7,93.3,46.3z"/>
		<rect x="89.3" y="56.8" class="st6" width="0.5" height="12.4"/>
		<circle class="st6" cx="26.5" cy="22.9" r="7.4"/>
	</g>
</g>
</svg>
